<svg width="113" height="113" viewBox="0 0 113 113" fill="none" xmlns="http://www.w3.org/2000/svg">
<path d="M54.8788 0.376489C54.4899 0.583887 54.0492 1.12831 53.8937 1.56903C53.5307 2.63194 53.5048 24.0198 53.8677 24.979C54.6196 26.9752 58.0935 27.0271 58.7934 25.0568C58.949 24.5642 59.0527 20.2867 59.0527 13.287C59.0527 3.87632 59.0008 2.13937 58.6638 1.41348C58.0157 0.0653931 56.3047 -0.401251 54.8788 0.376489Z" fill="#CC3928"/>
<path d="M34.5018 4.91325C33.4648 5.53545 33.0241 6.33911 33.2055 7.35017C33.3352 8.17977 36.1091 14.5832 38.6497 19.9755C39.4534 21.6865 40.3348 23.1642 40.6719 23.4235C41.4237 23.942 42.5125 23.9679 43.4977 23.4494C45.0791 22.6198 45.1828 21.1421 43.8606 18.3941C43.3421 17.3312 41.9681 14.2202 40.7756 11.5241C39.583 8.80196 38.4683 6.26134 38.2868 5.87247C37.9238 5.0688 36.8609 4.39476 35.9276 4.39476C35.5906 4.39476 34.9684 4.62808 34.5018 4.91325Z" fill="#CC3928"/>
<path d="M75.5664 4.86141C75.0219 5.19843 74.2442 6.52059 72.5072 10.0982C71.2369 12.7166 70.2 15.1276 70.2 15.4128C70.2 16.2164 71.1592 17.5904 71.9369 17.9015C73.0517 18.3163 74.2442 17.9793 74.9701 17.0201C75.8256 15.8794 79.2736 8.59456 79.4551 7.5835C79.6625 6.31319 79.3514 5.45767 78.4181 4.91325C77.3811 4.26514 76.5256 4.26514 75.5664 4.86141Z" fill="#CC3928"/>
<path d="M17.8063 16.009C17.2101 16.5534 16.9767 17.0201 16.873 17.8756L16.7434 19.0422L19.7247 21.9458C21.695 23.8901 22.8616 24.8753 23.2505 24.8753C24.7282 24.8753 26.1541 23.4235 26.2059 21.8939C26.2318 21.2199 25.9467 20.7273 24.7282 19.4052C21.0469 15.3091 19.4655 14.5313 17.8063 16.009Z" fill="#CC3928"/>
<path d="M87.31 20.3903C84.5361 23.2161 80.9325 26.9493 79.3511 28.6862C76.5772 31.6935 76.4216 31.9009 76.4216 32.9638C76.4216 35.0119 78.4178 36.3859 80.1029 35.4785C80.44 35.2711 83.4731 32.2638 86.8174 28.7899C96.1244 19.0941 95.8652 19.3793 95.8652 18.2127C95.8652 16.7868 94.8022 15.5424 93.4023 15.361L92.3653 15.2313L87.31 20.3903Z" fill="#CC3928"/>
<path d="M30.639 30.1639C29.9131 30.8898 29.7576 31.2268 29.7576 32.1601C29.7576 34.6488 31.7019 36.0228 33.9833 35.1414C37.2239 33.9229 36.1869 29.2824 32.6871 29.2824C31.7019 29.2824 31.3908 29.412 30.639 30.1639Z" fill="#CC3928"/>
<path d="M7.54034 32.8601C5.85523 33.1193 5.02564 36.0748 6.2441 37.4228C6.5552 37.7858 8.78472 39.0043 11.2216 40.119C13.6586 41.2597 17.8065 43.1781 20.4508 44.4225C23.1211 45.641 25.6358 46.652 26.0506 46.652C26.9579 46.652 28.0986 45.6928 28.3579 44.7336C28.5393 43.9559 28.0986 42.4522 27.4764 41.8819C27.2172 41.6745 24.2099 40.1968 20.7879 38.6672C17.3917 37.1118 13.5549 35.297 12.2586 34.6748C9.17359 33.1193 8.21438 32.7564 7.54034 32.8601Z" fill="#CC3928"/>
<path d="M102.736 33.5601C100.377 34.7008 96.592 36.4636 91.07 39.0043C85.0036 41.7523 84.2 42.3485 84.2 44.0336C84.2 45.4336 85.211 46.652 86.4036 46.652C86.8702 46.652 88.3998 46.1076 89.7997 45.4595C91.2255 44.7855 93.7143 43.6448 95.3476 42.893C107.091 37.5006 106.832 37.6302 107.143 36.2822C107.325 35.4785 106.806 34.0008 106.158 33.4823C105.432 32.8601 104.11 32.886 102.736 33.5601Z" fill="#CC3928"/>
<path d="M0.851986 55.0257C-0.133153 55.8553 -0.288701 57.3848 0.514965 58.5773L1.13716 59.4847L12.5181 59.5625C18.7919 59.5884 24.1842 59.5625 24.5212 59.4847C25.2471 59.3032 26.1286 57.9292 26.1286 56.9182C26.1286 56.4256 25.8434 55.9071 25.2471 55.3108L24.3657 54.4294H12.9588H1.52603L0.851986 55.0257Z" fill="#CC3928"/>
<path d="M87.7774 54.8441C87.3885 55.0515 86.9997 55.4922 86.9219 55.8033C86.5849 57.4366 86.6886 58.1625 87.4663 58.9402L88.1663 59.6143H99.5991C108.18 59.5883 111.136 59.5106 111.447 59.2772C112.691 58.318 112.821 56.2959 111.706 55.1811L110.954 54.4293H99.7028C90.2921 54.4552 88.3737 54.5071 87.7774 54.8441Z" fill="#CC3928"/>
<path d="M23.1469 68.0658C21.721 68.7139 19.4396 69.7509 18.0916 70.3731C6.60692 75.558 5.64771 76.1284 5.64771 77.7876C5.64771 79.4208 6.71062 80.6133 8.13648 80.6133C8.73274 80.6133 14.4103 78.0468 25.8171 72.6285C27.8392 71.6693 28.7207 70.7101 28.7207 69.4139C28.7207 68.5065 27.1911 66.8733 26.3615 66.8733C26.0245 66.8733 24.5727 67.4177 23.1469 68.0658Z" fill="#CC3928"/>
<path d="M84.8734 67.6769C84.0697 68.6361 83.9919 70.0101 84.6919 71.1508C85.0549 71.773 86.0659 72.3434 89.5398 73.9248C91.9508 75.0395 96.2284 76.9839 99.0542 78.2801C101.854 79.5504 104.472 80.6133 104.835 80.6133C105.224 80.6133 105.821 80.3022 106.261 79.8615C106.883 79.2393 107.013 78.8764 107.013 77.8912C107.013 76.2839 106.339 75.6617 102.839 74.0803C97.8617 71.8508 93.6878 69.9583 90.3435 68.4028C88.5288 67.5732 86.714 66.8733 86.2992 66.8733C85.7807 66.8733 85.34 67.1066 84.8734 67.6769Z" fill="#CC3928"/>
<path d="M32.4798 78.8246C31.9354 78.9801 29.3689 81.3652 24.2617 86.5242C16.9769 93.8091 16.7954 94.0165 16.7954 95.0275C16.7954 96.2201 17.288 97.0496 18.3768 97.62C19.9582 98.4237 20.2952 98.1903 28.1763 90.3611C32.3243 86.239 35.6686 82.7133 35.876 82.2207C36.213 81.4689 36.213 81.2615 35.8241 80.4838C35.5908 79.9912 35.2538 79.4727 35.0723 79.3172C34.502 78.8505 33.2835 78.6172 32.4798 78.8246Z" fill="#CC3928"/>
<path d="M77.6668 79.0579C76.8112 79.7319 76.3187 80.9504 76.552 81.8318C76.6557 82.2984 79.3778 85.2279 84.3035 90.1277L91.8735 97.7236H93.0401C94.4141 97.7236 95.2696 97.2051 95.7363 96.0645C96.4362 94.4053 96.2029 94.0942 89.4106 87.3538C80.674 78.6431 80.5703 78.5394 79.3259 78.5394C78.7037 78.5394 78.0556 78.7468 77.6668 79.0579Z" fill="#CC3928"/>
<path d="M41.1642 87.5353C40.568 88.0797 39.5828 90.1536 37.12 96.0386C32.972 105.89 32.972 105.916 33.5164 106.953C33.9831 107.834 35.1238 108.612 35.9793 108.612C37.1459 108.612 38.0014 107.886 38.8051 106.149C39.2458 105.216 39.6087 104.412 39.6087 104.334C39.6087 104.257 40.905 101.068 42.4605 97.2052C44.0419 93.3424 45.3122 89.8944 45.3122 89.5315C45.3122 88.6241 44.5863 87.4575 43.8345 87.1205C42.8234 86.6538 41.9938 86.7834 41.1642 87.5353Z" fill="#CC3928"/>
<path d="M54.5416 88.5204C54.2046 88.8833 53.8676 89.5315 53.7639 89.9722C53.5046 91.3721 53.5824 109.96 53.8676 110.997C54.2305 112.241 54.9823 112.76 56.4082 112.76C57.3155 112.76 57.6785 112.604 58.3007 111.982L59.0784 111.23L59.0007 100.394C58.9488 91.4758 58.8451 89.4537 58.5599 88.987C57.7044 87.7167 55.5267 87.4575 54.5416 88.5204Z" fill="#CC3928"/>
<path d="M70.2004 89.4537C69.1116 89.687 68.1265 90.7499 68.1265 91.7351C68.1265 92.1239 68.9561 94.3794 69.9671 96.7126C70.9782 99.0458 72.2485 102.001 72.7929 103.297C74.4262 107.186 74.5558 107.445 75.0484 107.886C76.6816 109.312 79.5333 108.068 79.5333 105.916C79.5333 105.034 79.4556 104.853 75.8002 96.583C74.4002 93.472 73.0781 90.6462 72.8448 90.3092C72.2744 89.5315 71.3152 89.2204 70.2004 89.4537Z" fill="#CC3928"/>
</svg>
