<svg width="113" height="113" viewBox="0 0 113 113" fill="none" xmlns="http://www.w3.org/2000/svg">
<path d="M54.8789 0.376477C54.49 0.583874 54.0493 1.12829 53.8937 1.56901C53.5308 2.63192 53.5049 24.0198 53.8678 24.979C54.6196 26.9752 58.0935 27.0271 58.7935 25.0568C58.9491 24.5642 59.0528 20.2866 59.0528 13.287C59.0528 3.87631 59.0009 2.13935 58.6639 1.41346C58.0158 0.0653803 56.3047 -0.401264 54.8789 0.376477Z" fill="#CC3928"/>
<path d="M34.5019 4.91327C33.4649 5.53546 33.0242 6.33913 33.2057 7.35019C33.3353 8.17978 36.1092 14.5832 38.6498 19.9755C39.4535 21.6865 40.3349 23.1643 40.672 23.4235C41.4238 23.942 42.5126 23.9679 43.4978 23.4494C45.0792 22.6198 45.1829 21.1421 43.8607 18.3941C43.3422 17.3312 41.9682 14.2202 40.7757 11.5241C39.5831 8.80198 38.4684 6.26135 38.2869 5.87248C37.9239 5.06882 36.861 4.39478 35.9277 4.39478C35.5907 4.39478 34.9685 4.6281 34.5019 4.91327Z" fill="#CC3928"/>
<path d="M75.5664 4.86142C75.022 5.19844 74.2442 6.5206 72.5073 10.0982C71.237 12.7166 70.2 15.1276 70.2 15.4128C70.2 16.2164 71.1592 17.5904 71.9369 17.9015C73.0517 18.3163 74.2442 17.9793 74.9701 17.0201C75.8256 15.8794 79.2736 8.59457 79.4551 7.58351C79.6625 6.3132 79.3514 5.45768 78.4181 4.91326C77.3811 4.26515 76.5256 4.26515 75.5664 4.86142Z" fill="#CC3928"/>
<path d="M17.8064 16.009C17.2102 16.5535 16.9768 17.0201 16.8731 17.8756L16.7435 19.0422L19.7249 21.9458C21.6951 23.8901 22.8618 24.8753 23.2506 24.8753C24.7283 24.8753 26.1542 23.4235 26.206 21.8939C26.232 21.2199 25.9468 20.7273 24.7283 19.4052C21.047 15.3091 19.4656 14.5313 17.8064 16.009Z" fill="#CC3928"/>
<path d="M87.3101 20.3903C84.5362 23.2161 80.9326 26.9493 79.3512 28.6862C76.5773 31.6935 76.4217 31.9009 76.4217 32.9638C76.4217 35.0119 78.4179 36.3859 80.1031 35.4785C80.4401 35.2711 83.4733 32.2639 86.8176 28.7899C96.1245 19.0941 95.8653 19.3793 95.8653 18.2127C95.8653 16.7868 94.8024 15.5424 93.4024 15.361L92.3654 15.2313L87.3101 20.3903Z" fill="#CC3928"/>
<path d="M30.6391 30.1639C29.9132 30.8897 29.7576 31.2268 29.7576 32.1601C29.7576 34.6488 31.702 36.0228 33.9834 35.1414C37.224 33.9229 36.187 29.2824 32.6871 29.2824C31.702 29.2824 31.3909 29.412 30.6391 30.1639Z" fill="#CC3928"/>
<path d="M53.3495 31.9008C49.6941 32.3156 45.235 34.0266 41.9426 36.2821C38.8835 38.4079 35.5651 42.4263 33.8541 46.1335C31.1061 52.0184 30.8209 59.8476 33.1282 65.7844C34.6837 69.8027 37.9761 74.184 41.45 76.8802C43.3685 78.3579 47.2053 80.1726 49.8496 80.8985C52.4939 81.5985 57.5233 81.8318 60.2454 81.417C62.6564 81.0022 65.8452 79.9393 68.308 78.7208C75.5669 75.0654 80.5704 66.8214 81.0111 57.7996C81.1926 54.1961 80.8556 51.811 79.7149 48.4667C77.5631 42.1411 73.0782 37.1376 66.9599 34.2081C63.9527 32.7823 62.1639 32.2638 58.9233 31.8749C56.3308 31.5897 56.0975 31.5897 53.3495 31.9008Z" fill="#CC3928"/>
<path d="M7.54039 32.8601C5.85528 33.1194 5.02569 36.0748 6.24415 37.4229C6.55525 37.7858 8.78478 39.0043 11.2217 40.119C13.6586 41.2597 17.8066 43.1781 20.4509 44.4225C23.1211 45.641 25.6358 46.652 26.0506 46.652C26.958 46.652 28.0987 45.6928 28.3579 44.7336C28.5394 43.9559 28.0987 42.4522 27.4765 41.8819C27.2172 41.6745 24.21 40.1968 20.7879 38.6672C17.3918 37.1118 13.5549 35.297 12.2587 34.6748C9.17364 33.1193 8.21443 32.7564 7.54039 32.8601Z" fill="#CC3928"/>
<path d="M102.736 33.5601C100.377 34.7008 96.592 36.4636 91.07 39.0043C85.0036 41.7523 84.2 42.3485 84.2 44.0336C84.2 45.4336 85.211 46.652 86.4036 46.652C86.8702 46.652 88.3998 46.1076 89.7997 45.4595C91.2256 44.7855 93.7143 43.6448 95.3476 42.893C107.091 37.5006 106.832 37.6302 107.143 36.2822C107.325 35.4785 106.806 34.0008 106.158 33.4823C105.432 32.8601 104.11 32.886 102.736 33.5601Z" fill="#CC3928"/>
<path d="M0.851986 55.0257C-0.133153 55.8552 -0.288701 57.3848 0.514965 58.5773L1.13716 59.4847L12.5181 59.5625C18.7919 59.5884 24.1842 59.5625 24.5212 59.4847C25.2471 59.3032 26.1286 57.9292 26.1286 56.9182C26.1286 56.4256 25.8434 55.9071 25.2471 55.3108L24.3657 54.4294H1.52603L0.851986 55.0257Z" fill="#CC3928"/>
<path d="M87.7774 54.8441C87.3885 55.0515 86.9997 55.4922 86.9219 55.8033C86.5849 57.4366 86.6886 58.1625 87.4663 58.9402L88.1663 59.6142H99.5991C108.18 59.5883 111.136 59.5105 111.447 59.2772C112.691 58.318 112.821 56.2959 111.706 55.1811L110.954 54.4293H99.7028C90.2921 54.4552 88.3737 54.5071 87.7774 54.8441Z" fill="#CC3928"/>
<path d="M23.1468 68.0658C21.721 68.7139 19.4396 69.7509 18.0915 70.3731C6.60686 75.558 5.64765 76.1284 5.64765 77.7876C5.64765 79.4208 6.71056 80.6134 8.13642 80.6134C8.73268 80.6134 14.4102 78.0468 25.8171 72.6286C27.8392 71.6693 28.7206 70.7101 28.7206 69.4139C28.7206 68.5065 27.1911 66.8733 26.3615 66.8733C26.0245 66.8733 24.5727 67.4177 23.1468 68.0658Z" fill="#CC3928"/>
<path d="M84.8735 67.6769C84.0698 68.6361 83.992 70.0102 84.692 71.1508C85.0549 71.773 86.066 72.3434 89.5399 73.9248C91.9509 75.0396 96.2285 76.9839 99.0543 78.2801C101.854 79.5504 104.473 80.6134 104.835 80.6134C105.224 80.6134 105.821 80.3023 106.261 79.8615C106.884 79.2393 107.013 78.8764 107.013 77.8913C107.013 76.2839 106.339 75.6617 102.839 74.0803C97.8617 71.8508 93.6879 69.9583 90.3436 68.4028C88.5288 67.5732 86.7141 66.8733 86.2993 66.8733C85.7808 66.8733 85.3401 67.1066 84.8735 67.6769Z" fill="#CC3928"/>
<path d="M32.4797 78.8246C31.9353 78.9801 29.3688 81.3652 24.2616 86.5242C16.9768 93.8091 16.7953 94.0165 16.7953 95.0275C16.7953 96.2201 17.2879 97.0496 18.3767 97.62C19.9581 98.4237 20.2951 98.1903 28.1762 90.3611C32.3242 86.2391 35.6685 82.7133 35.8759 82.2207C36.2129 81.4689 36.2129 81.2615 35.824 80.4838C35.5907 79.9912 35.2537 79.4727 35.0722 79.3172C34.5019 78.8505 33.2834 78.6172 32.4797 78.8246Z" fill="#CC3928"/>
<path d="M77.6667 79.0579C76.8112 79.7319 76.3186 80.9504 76.5519 81.8318C76.6556 82.2985 79.3777 85.2279 84.3034 90.1277L91.8734 97.7236H93.0401C94.4141 97.7236 95.2696 97.2052 95.7362 96.0645C96.4362 94.4053 96.2029 94.0942 89.4106 87.3538C80.674 78.6431 80.5703 78.5394 79.3259 78.5394C78.7037 78.5394 78.0556 78.7468 77.6667 79.0579Z" fill="#CC3928"/>
<path d="M41.1641 87.5352C40.5679 88.0797 39.5827 90.1536 37.1199 96.0386C32.9719 105.89 32.9719 105.916 33.5163 106.953C33.983 107.834 35.1237 108.612 35.9792 108.612C37.1458 108.612 38.0013 107.886 38.805 106.149C39.2457 105.216 39.6087 104.412 39.6087 104.334C39.6087 104.257 40.9049 101.068 42.4604 97.2052C44.0418 93.3424 45.3121 89.8944 45.3121 89.5315C45.3121 88.6241 44.5862 87.4575 43.8344 87.1205C42.8233 86.6538 41.9937 86.7834 41.1641 87.5352Z" fill="#CC3928"/>
<path d="M54.5415 88.5204C54.2045 88.8833 53.8675 89.5315 53.7638 89.9722C53.5045 91.3721 53.5823 109.96 53.8675 110.997C54.2304 112.241 54.9822 112.76 56.4081 112.76C57.3155 112.76 57.6784 112.604 58.3006 111.982L59.0783 111.23L59.0006 100.394C58.9487 91.4758 58.845 89.4537 58.5598 88.987C57.7043 87.7167 55.5267 87.4575 54.5415 88.5204Z" fill="#CC3928"/>
<path d="M70.2004 89.4537C69.1116 89.687 68.1264 90.7499 68.1264 91.7351C68.1264 92.1239 68.956 94.3794 69.9671 96.7126C70.9782 99.0458 72.2485 102.001 72.7929 103.297C74.4261 107.186 74.5558 107.445 75.0483 107.886C76.6816 109.312 79.5333 108.068 79.5333 105.916C79.5333 105.034 79.4555 104.853 75.8002 96.583C74.4002 93.472 73.0781 90.6462 72.8447 90.3092C72.2744 89.5315 71.3152 89.2204 70.2004 89.4537Z" fill="#CC3928"/>
</svg>
